# xmcd CD database file
#
# Track frame offsets:
#	150
#	14806
#	25631
#	42208
#	54708
#	62406
#	71718
#	80013
#	101258
#	118818
#	134009
#	143892
#
# Disc length: 2009 seconds
#
# Revision: 0
# Processed by: cddbd v1.5.2PL0 Copyright (c) Steve Scherf et al.
# Submitted via: CDex 1.51
#
DISCID=ac07d70c
DTITLE=Peter Ratzenbeck - Fingerprints
DYEAR=1978
DGENRE=Jazz
TTITLE0=Blind Man
TTITLE1=Improvisation Blues for Duane
TTITLE2=The Singer Not The Song
TTITLE3=Potato Juice
TTITLE4=Ratzen - Rag
TTITLE5=Little Ballerina
TTITLE6=Lady Madonna
TTITLE7=Song for Marcel
TTITLE8=Birthday Rag
TTITLE9=Corrina, Corrina
TTITLE10=Music To Watch Girls By
TTITLE11=Bye, Bye Jazzland
EXTD=YEAR: 1978
EXTT0=
EXTT1=
EXTT2=
EXTT3=
EXTT4=
EXTT5=
EXTT6=
EXTT7=
EXTT8=
EXTT9=
EXTT10=
EXTT11=
PLAYORDER=
